<svg xmlns="http://www.w3.org/2000/svg" viewBox="0 0 1600 900" width="1600" height="900">

<defs>
  <linearGradient id="room" x1="0" y1="0" x2="0" y2="1">
    <stop offset="0%" stop-color="#0b1119"/>
    <stop offset="55%" stop-color="#111a24"/>
    <stop offset="100%" stop-color="#070b10"/>
  </linearGradient>
  <radialGradient id="lamp" cx="50%" cy="50%" r="50%">
    <stop offset="0%" stop-color="#ffb877" stop-opacity="0.42"/>
    <stop offset="45%" stop-color="#ffb877" stop-opacity="0.14"/>
    <stop offset="100%" stop-color="#ffb877" stop-opacity="0"/>
  </radialGradient>
  <radialGradient id="dawn" cx="50%" cy="50%" r="60%">
    <stop offset="0%" stop-color="#8fa8c4" stop-opacity="0.40"/>
    <stop offset="100%" stop-color="#8fa8c4" stop-opacity="0"/>
  </radialGradient>
  <radialGradient id="vig" cx="50%" cy="48%" r="72%">
    <stop offset="55%" stop-color="#000" stop-opacity="0"/>
    <stop offset="100%" stop-color="#000" stop-opacity="0.62"/>
  </radialGradient>
  <linearGradient id="sheet" x1="0" y1="0" x2="0.2" y2="1">
    <stop offset="0%" stop-color="#e8e3d7"/>
    <stop offset="100%" stop-color="#dcd6c8"/>
  </linearGradient>
  <filter id="soft" x="-25%" y="-25%" width="150%" height="150%">
    <feDropShadow dx="0" dy="7" stdDeviation="11" flood-color="#000" flood-opacity="0.55"/>
  </filter>
  <filter id="soft2" x="-25%" y="-25%" width="150%" height="150%">
    <feDropShadow dx="0" dy="3" stdDeviation="5" flood-color="#000" flood-opacity="0.5"/>
  </filter>
</defs>
<rect width="1600" height="900" fill="url(#room)"/>

  <g><rect x="1460" y="0" width="140" height="900" fill="#8fa8c4" opacity="0.10"/><rect x="1499.2" y="0" width="61.6" height="900" fill="#dfe8f2" opacity="0.16"/><rect x="1518.8" y="0" width="22.4" height="900" fill="#f2f6fa" opacity="0.22"/></g>
  <g filter="url(#soft)"><rect x="220" y="250" width="860" height="420" rx="10" fill="#0d1319" stroke="#26313d" stroke-width="2"/></g>
  <g opacity="0.5"><g opacity="0.45"><line x1="240" y1="270" x2="240" y2="650" stroke="#243040" stroke-width="1"/><line x1="280" y1="270" x2="280" y2="650" stroke="#243040" stroke-width="1"/><line x1="320" y1="270" x2="320" y2="650" stroke="#243040" stroke-width="1"/><line x1="360" y1="270" x2="360" y2="650" stroke="#243040" stroke-width="1"/><line x1="400" y1="270" x2="400" y2="650" stroke="#243040" stroke-width="1"/><line x1="440" y1="270" x2="440" y2="650" stroke="#243040" stroke-width="1"/><line x1="480" y1="270" x2="480" y2="650" stroke="#243040" stroke-width="1"/><line x1="520" y1="270" x2="520" y2="650" stroke="#243040" stroke-width="1"/><line x1="560" y1="270" x2="560" y2="650" stroke="#243040" stroke-width="1"/><line x1="600" y1="270" x2="600" y2="650" stroke="#243040" stroke-width="1"/><line x1="640" y1="270" x2="640" y2="650" stroke="#243040" stroke-width="1"/><line x1="680" y1="270" x2="680" y2="650" stroke="#243040" stroke-width="1"/><line x1="720" y1="270" x2="720" y2="650" stroke="#243040" stroke-width="1"/><line x1="760" y1="270" x2="760" y2="650" stroke="#243040" stroke-width="1"/><line x1="800" y1="270" x2="800" y2="650" stroke="#243040" stroke-width="1"/><line x1="840" y1="270" x2="840" y2="650" stroke="#243040" stroke-width="1"/><line x1="880" y1="270" x2="880" y2="650" stroke="#243040" stroke-width="1"/><line x1="920" y1="270" x2="920" y2="650" stroke="#243040" stroke-width="1"/><line x1="960" y1="270" x2="960" y2="650" stroke="#243040" stroke-width="1"/><line x1="1000" y1="270" x2="1000" y2="650" stroke="#243040" stroke-width="1"/><line x1="1040" y1="270" x2="1040" y2="650" stroke="#243040" stroke-width="1"/><line x1="240" y1="270" x2="1060" y2="270" stroke="#243040" stroke-width="1"/><line x1="240" y1="310" x2="1060" y2="310" stroke="#243040" stroke-width="1"/><line x1="240" y1="350" x2="1060" y2="350" stroke="#243040" stroke-width="1"/><line x1="240" y1="390" x2="1060" y2="390" stroke="#243040" stroke-width="1"/><line x1="240" y1="430" x2="1060" y2="430" stroke="#243040" stroke-width="1"/><line x1="240" y1="470" x2="1060" y2="470" stroke="#243040" stroke-width="1"/><line x1="240" y1="510" x2="1060" y2="510" stroke="#243040" stroke-width="1"/><line x1="240" y1="550" x2="1060" y2="550" stroke="#243040" stroke-width="1"/><line x1="240" y1="590" x2="1060" y2="590" stroke="#243040" stroke-width="1"/><line x1="240" y1="630" x2="1060" y2="630" stroke="#243040" stroke-width="1"/></g></g>
  <path d="M 280 498.4 L 280 498.4 L 294.8 485.6 L 301.14 575.2 L 307.49 332 L 313.83 530.4 L 322.29 498.4 L 385.71 498.4 L 385.71 498.4 L 400.51 485.6 L 406.85 575.2 L 413.2 332 L 419.54 530.4 L 428 498.4 L 491.42 498.4 L 491.43 498.4 L 506.23 485.6 L 512.57 575.2 L 518.92 332 L 525.26 530.4 L 533.72 498.4 L 597.14 498.4 L 597.14 498.4 L 611.94 485.6 L 618.28 575.2 L 624.63 332 L 630.97 530.4 L 639.43 498.4 L 702.85 498.4 L 702.86 498.4 L 717.66 485.6 L 724 575.2 L 730.35 332 L 736.69 530.4 L 745.15 498.4 L 808.57 498.4 L 808.57 498.4 L 823.37 485.6 L 829.71 575.2 L 836.06 332 L 842.4 530.4 L 850.86 498.4 L 914.28 498.4 L 914.29 498.4 L 929.09 485.6 L 935.43 575.2 L 941.78 332 L 948.12 530.4 L 956.58 498.4 L 1020 498.4" fill="none" stroke="#7fd4a0" stroke-width="2.6" stroke-linejoin="round" opacity="0.86"/>
  <g opacity="0.75">
    <rect x="250" y="707" width="300" height="14" rx="7" fill="#1b2430"/>
    <rect x="250" y="707" width="212" height="14" rx="7" fill="#7fd4a0" opacity="0.55"/>
  </g>
  <g transform="translate(1180 610) scale(1.3)" filter="url(#soft2)">
  <rect x="0" y="0" width="132" height="60" rx="8" fill="#20262e" stroke="#39414c" stroke-width="2"/>
  <rect x="14" y="-20" width="104" height="24" rx="12" fill="#2a313a" stroke="#39414c" stroke-width="2"/>
  <circle cx="34" cy="41" r="5" fill="#6d7681" opacity="0.7"/>
  <circle cx="52" cy="41" r="5" fill="#6d7681" opacity="0.7"/>
  <circle cx="70" cy="41" r="5" fill="#6d7681" opacity="0.7"/>
  <path d="M92 34 q22 26 -14 30" fill="none" stroke="#4b5563" stroke-width="3" stroke-linecap="round"/>
</g>
  <g opacity="0.9">
    <path d="M1180 596 q120 -46 236 -8" fill="none" stroke="#4b5563" stroke-width="3" stroke-dasharray="7 7"/>
    <circle cx="1420" cy="586" r="7" fill="#b4472f" opacity="0.85"/>
  </g>
  <g opacity="0.92">
    <circle cx="1360" cy="200" r="62" fill="#f2eee3" stroke="#b9b2a2" stroke-width="2"/>
    <circle cx="1360" cy="200" r="53.32" fill="none" stroke="#6d7681" stroke-width="1" opacity="0.5"/>
    <line x1="1360" y1="155.36" x2="1360" y2="147.92" stroke="#6d7681" stroke-width="2"/><line x1="1382.32" y1="161.34" x2="1386.04" y2="154.9" stroke="#6d7681" stroke-width="2"/><line x1="1398.66" y1="177.68" x2="1405.1" y2="173.96" stroke="#6d7681" stroke-width="2"/><line x1="1404.64" y1="200" x2="1412.08" y2="200" stroke="#6d7681" stroke-width="2"/><line x1="1398.66" y1="222.32" x2="1405.1" y2="226.04" stroke="#6d7681" stroke-width="2"/><line x1="1382.32" y1="238.66" x2="1386.04" y2="245.1" stroke="#6d7681" stroke-width="2"/><line x1="1360" y1="244.64" x2="1360" y2="252.08" stroke="#6d7681" stroke-width="2"/><line x1="1337.68" y1="238.66" x2="1333.96" y2="245.1" stroke="#6d7681" stroke-width="2"/><line x1="1321.34" y1="222.32" x2="1314.9" y2="226.04" stroke="#6d7681" stroke-width="2"/><line x1="1315.36" y1="200" x2="1307.92" y2="200" stroke="#6d7681" stroke-width="2"/><line x1="1321.34" y1="177.68" x2="1314.9" y2="173.96" stroke="#6d7681" stroke-width="2"/><line x1="1337.68" y1="161.34" x2="1333.96" y2="154.9" stroke="#6d7681" stroke-width="2"/>
    <line x1="1360" y1="200" x2="1384.92" y2="188.9" stroke="#2b3138" stroke-width="4" stroke-linecap="round"/><line x1="1360" y1="200" x2="1381.08" y2="163.49" stroke="#2b3138" stroke-width="2.5" stroke-linecap="round"/>
    <circle cx="1360" cy="200" r="3" fill="#2b3138"/>
  </g>
  <g><circle cx="838.99" cy="539.56" r="1.62" fill="#fff" opacity="0.09"/><circle cx="295.96" cy="703.93" r="1.19" fill="#fff" opacity="0.16"/><circle cx="358.53" cy="545.28" r="1.09" fill="#fff" opacity="0.19"/><circle cx="1158.75" cy="361.47" r="1.46" fill="#fff" opacity="0.09"/><circle cx="235.99" cy="190.67" r="1.05" fill="#fff" opacity="0.13"/><circle cx="912.35" cy="716.82" r="1.13" fill="#fff" opacity="0.09"/><circle cx="575.39" cy="157.99" r="1.46" fill="#fff" opacity="0.1"/><circle cx="569.33" cy="468.93" r="1.7" fill="#fff" opacity="0.1"/><circle cx="421.71" cy="114.59" r="0.95" fill="#fff" opacity="0.2"/><circle cx="556.75" cy="436.01" r="1.52" fill="#fff" opacity="0.06"/><circle cx="272.07" cy="275.27" r="1.39" fill="#fff" opacity="0.18"/><circle cx="180.45" cy="330.98" r="1.45" fill="#fff" opacity="0.13"/><circle cx="443.02" cy="420.92" r="1.01" fill="#fff" opacity="0.1"/><circle cx="745.54" cy="393.3" r="1.8" fill="#fff" opacity="0.07"/><circle cx="494.28" cy="813.4" r="1.03" fill="#fff" opacity="0.14"/><circle cx="633.16" cy="476.9" r="1.04" fill="#fff" opacity="0.18"/><circle cx="1008.56" cy="566.67" r="0.96" fill="#fff" opacity="0.11"/><circle cx="533.49" cy="294.49" r="1.36" fill="#fff" opacity="0.16"/><circle cx="1227.69" cy="134.21" r="0.79" fill="#fff" opacity="0.14"/><circle cx="635.02" cy="818.06" r="1.65" fill="#fff" opacity="0.06"/><circle cx="345.04" cy="512.57" r="1.01" fill="#fff" opacity="0.19"/><circle cx="170.03" cy="175.63" r="1.3" fill="#fff" opacity="0.15"/><circle cx="1154.14" cy="641.36" r="1.72" fill="#fff" opacity="0.07"/><circle cx="616.35" cy="324.26" r="1.8" fill="#fff" opacity="0.16"/><circle cx="453.53" cy="399.28" r="0.88" fill="#fff" opacity="0.15"/><circle cx="855.41" cy="819.29" r="0.92" fill="#fff" opacity="0.06"/><circle cx="1307.93" cy="316.57" r="0.73" fill="#fff" opacity="0.13"/><circle cx="1186.46" cy="399.88" r="1.66" fill="#fff" opacity="0.16"/><circle cx="365.61" cy="223.63" r="1.61" fill="#fff" opacity="0.17"/><circle cx="597.06" cy="470.76" r="0.72" fill="#fff" opacity="0.15"/><circle cx="932.03" cy="535.89" r="1.42" fill="#fff" opacity="0.08"/><circle cx="289.91" cy="120.22" r="0.86" fill="#fff" opacity="0.16"/><circle cx="1099.71" cy="254.93" r="0.68" fill="#fff" opacity="0.11"/><circle cx="465.77" cy="434.38" r="1.51" fill="#fff" opacity="0.18"/><circle cx="1134.37" cy="565.91" r="1.45" fill="#fff" opacity="0.18"/><circle cx="762.79" cy="347.69" r="1.5" fill="#fff" opacity="0.16"/><circle cx="217.32" cy="711.16" r="1.54" fill="#fff" opacity="0.07"/><circle cx="451.96" cy="309.7" r="0.91" fill="#fff" opacity="0.16"/><circle cx="744.07" cy="200.07" r="0.76" fill="#fff" opacity="0.15"/><circle cx="988.91" cy="448.07" r="0.74" fill="#fff" opacity="0.18"/><circle cx="679.25" cy="695.23" r="1.06" fill="#fff" opacity="0.16"/><circle cx="521.91" cy="627.81" r="1.6" fill="#fff" opacity="0.19"/><circle cx="1267.69" cy="174.84" r="0.68" fill="#fff" opacity="0.2"/><circle cx="1156.12" cy="186.79" r="1.62" fill="#fff" opacity="0.13"/><circle cx="201.86" cy="831.28" r="1.57" fill="#fff" opacity="0.13"/><circle cx="374.07" cy="307.52" r="1.23" fill="#fff" opacity="0.08"/><circle cx="145.46" cy="366.03" r="1.74" fill="#fff" opacity="0.16"/><circle cx="412.49" cy="145.14" r="1.78" fill="#fff" opacity="0.12"/><circle cx="1413.34" cy="720.84" r="0.91" fill="#fff" opacity="0.09"/><circle cx="495.23" cy="771.67" r="0.75" fill="#fff" opacity="0.17"/><circle cx="907.59" cy="205.02" r="1.46" fill="#fff" opacity="0.09"/><circle cx="522.61" cy="656.55" r="1.62" fill="#fff" opacity="0.18"/><circle cx="1209.95" cy="839.17" r="0.62" fill="#fff" opacity="0.08"/><circle cx="616.84" cy="443.35" r="0.79" fill="#fff" opacity="0.07"/><circle cx="1230.44" cy="575" r="1.28" fill="#fff" opacity="0.12"/></g>

<rect width="1600" height="900" fill="url(#vig)"/>
</svg>