<svg xmlns="http://www.w3.org/2000/svg" viewBox="0 0 800 800" width="800" height="800">

<defs>
  <linearGradient id="room" x1="0" y1="0" x2="0" y2="1">
    <stop offset="0%" stop-color="#0b1119"/>
    <stop offset="55%" stop-color="#111a24"/>
    <stop offset="100%" stop-color="#070b10"/>
  </linearGradient>
  <radialGradient id="lamp" cx="50%" cy="50%" r="50%">
    <stop offset="0%" stop-color="#ffb877" stop-opacity="0.42"/>
    <stop offset="45%" stop-color="#ffb877" stop-opacity="0.14"/>
    <stop offset="100%" stop-color="#ffb877" stop-opacity="0"/>
  </radialGradient>
  <radialGradient id="dawn" cx="50%" cy="50%" r="60%">
    <stop offset="0%" stop-color="#8fa8c4" stop-opacity="0.40"/>
    <stop offset="100%" stop-color="#8fa8c4" stop-opacity="0"/>
  </radialGradient>
  <radialGradient id="vig" cx="50%" cy="48%" r="72%">
    <stop offset="55%" stop-color="#000" stop-opacity="0"/>
    <stop offset="100%" stop-color="#000" stop-opacity="0.62"/>
  </radialGradient>
  <linearGradient id="sheet" x1="0" y1="0" x2="0.2" y2="1">
    <stop offset="0%" stop-color="#e8e3d7"/>
    <stop offset="100%" stop-color="#dcd6c8"/>
  </linearGradient>
  <filter id="soft" x="-25%" y="-25%" width="150%" height="150%">
    <feDropShadow dx="0" dy="7" stdDeviation="11" flood-color="#000" flood-opacity="0.55"/>
  </filter>
  <filter id="soft2" x="-25%" y="-25%" width="150%" height="150%">
    <feDropShadow dx="0" dy="3" stdDeviation="5" flood-color="#000" flood-opacity="0.5"/>
  </filter>
</defs>
<rect width="800" height="800" fill="url(#room)"/>

  <rect x="6" y="6" width="88" height="88" rx="3" fill="none" stroke="#243040" stroke-width="1.4" opacity="0.75"/><path d="M20 50 h16 l6 -20 l7 34 l6 -14 h18" fill="none" stroke="#31506b" stroke-width="1.8" opacity="0.55"/><rect x="106" y="6" width="88" height="88" rx="3" fill="none" stroke="#243040" stroke-width="1.4" opacity="0.75"/><path d="M120 50 h16 l6 -20 l7 34 l6 -14 h18" fill="none" stroke="#31506b" stroke-width="1.8" opacity="0.55"/><rect x="206" y="6" width="88" height="88" rx="3" fill="none" stroke="#243040" stroke-width="1.4" opacity="0.75"/><path d="M220 50 h16 l6 -20 l7 34 l6 -14 h18" fill="none" stroke="#31506b" stroke-width="1.8" opacity="0.55"/><rect x="306" y="6" width="88" height="88" rx="3" fill="none" stroke="#243040" stroke-width="1.4" opacity="0.75"/><path d="M320 50 h16 l6 -20 l7 34 l6 -14 h18" fill="none" stroke="#31506b" stroke-width="1.8" opacity="0.55"/><rect x="406" y="6" width="88" height="88" rx="3" fill="none" stroke="#243040" stroke-width="1.4" opacity="0.75"/><path d="M420 50 h16 l6 -20 l7 34 l6 -14 h18" fill="none" stroke="#31506b" stroke-width="1.8" opacity="0.55"/><rect x="506" y="6" width="88" height="88" rx="3" fill="none" stroke="#243040" stroke-width="1.4" opacity="0.75"/><path d="M520 50 h16 l6 -20 l7 34 l6 -14 h18" fill="none" stroke="#31506b" stroke-width="1.8" opacity="0.55"/><rect x="606" y="6" width="88" height="88" rx="3" fill="none" stroke="#243040" stroke-width="1.4" opacity="0.75"/><path d="M620 50 h16 l6 -20 l7 34 l6 -14 h18" fill="none" stroke="#31506b" stroke-width="1.8" opacity="0.55"/><rect x="706" y="6" width="88" height="88" rx="3" fill="none" stroke="#243040" stroke-width="1.4" opacity="0.75"/><path d="M720 50 h16 l6 -20 l7 34 l6 -14 h18" fill="none" stroke="#31506b" stroke-width="1.8" opacity="0.55"/><rect x="6" y="106" width="88" height="88" rx="3" fill="none" stroke="#243040" stroke-width="1.4" opacity="0.75"/><path d="M20 150 h16 l6 -20 l7 34 l6 -14 h18" fill="none" stroke="#31506b" stroke-width="1.8" opacity="0.55"/><rect x="106" y="106" width="88" height="88" rx="3" fill="none" stroke="#243040" stroke-width="1.4" opacity="0.75"/><path d="M120 150 h16 l6 -20 l7 34 l6 -14 h18" fill="none" stroke="#31506b" stroke-width="1.8" opacity="0.55"/><rect x="206" y="106" width="88" height="88" rx="3" fill="none" stroke="#243040" stroke-width="1.4" opacity="0.75"/><path d="M220 150 h16 l6 -20 l7 34 l6 -14 h18" fill="none" stroke="#31506b" stroke-width="1.8" opacity="0.55"/><rect x="306" y="106" width="88" height="88" rx="3" fill="none" stroke="#243040" stroke-width="1.4" opacity="0.75"/><path d="M320 150 h16 l6 -20 l7 34 l6 -14 h18" fill="none" stroke="#31506b" stroke-width="1.8" opacity="0.55"/><rect x="406" y="106" width="88" height="88" rx="3" fill="none" stroke="#243040" stroke-width="1.4" opacity="0.75"/><path d="M420 150 h16 l6 -20 l7 34 l6 -14 h18" fill="none" stroke="#31506b" stroke-width="1.8" opacity="0.55"/><rect x="506" y="106" width="88" height="88" rx="3" fill="none" stroke="#243040" stroke-width="1.4" opacity="0.75"/><path d="M520 150 h16 l6 -20 l7 34 l6 -14 h18" fill="none" stroke="#31506b" stroke-width="1.8" opacity="0.55"/><rect x="606" y="106" width="88" height="88" rx="3" fill="none" stroke="#243040" stroke-width="1.4" opacity="0.75"/><path d="M620 150 h16 l6 -20 l7 34 l6 -14 h18" fill="none" stroke="#31506b" stroke-width="1.8" opacity="0.55"/><rect x="706" y="106" width="88" height="88" rx="3" fill="none" stroke="#243040" stroke-width="1.4" opacity="0.75"/><path d="M720 150 h16 l6 -20 l7 34 l6 -14 h18" fill="none" stroke="#31506b" stroke-width="1.8" opacity="0.55"/><rect x="6" y="206" width="88" height="88" rx="3" fill="none" stroke="#243040" stroke-width="1.4" opacity="0.75"/><path d="M20 250 h16 l6 -20 l7 34 l6 -14 h18" fill="none" stroke="#31506b" stroke-width="1.8" opacity="0.55"/><rect x="106" y="206" width="88" height="88" rx="3" fill="none" stroke="#243040" stroke-width="1.4" opacity="0.75"/><path d="M120 250 h16 l6 -20 l7 34 l6 -14 h18" fill="none" stroke="#31506b" stroke-width="1.8" opacity="0.55"/><rect x="206" y="206" width="88" height="88" rx="3" fill="none" stroke="#243040" stroke-width="1.4" opacity="0.75"/><path d="M220 250 h16 l6 -20 l7 34 l6 -14 h18" fill="none" stroke="#31506b" stroke-width="1.8" opacity="0.55"/><rect x="306" y="206" width="88" height="88" rx="3" fill="none" stroke="#243040" stroke-width="1.4" opacity="0.75"/><path d="M320 250 h16 l6 -20 l7 34 l6 -14 h18" fill="none" stroke="#31506b" stroke-width="1.8" opacity="0.55"/><rect x="406" y="206" width="88" height="88" rx="3" fill="none" stroke="#243040" stroke-width="1.4" opacity="0.75"/><path d="M420 250 h16 l6 -20 l7 34 l6 -14 h18" fill="none" stroke="#31506b" stroke-width="1.8" opacity="0.55"/><rect x="506" y="206" width="88" height="88" rx="3" fill="none" stroke="#243040" stroke-width="1.4" opacity="0.75"/><path d="M520 250 h16 l6 -20 l7 34 l6 -14 h18" fill="none" stroke="#31506b" stroke-width="1.8" opacity="0.55"/><rect x="606" y="206" width="88" height="88" rx="3" fill="none" stroke="#243040" stroke-width="1.4" opacity="0.75"/><path d="M620 250 h16 l6 -20 l7 34 l6 -14 h18" fill="none" stroke="#31506b" stroke-width="1.8" opacity="0.55"/><rect x="706" y="206" width="88" height="88" rx="3" fill="none" stroke="#243040" stroke-width="1.4" opacity="0.75"/><path d="M720 250 h16 l6 -20 l7 34 l6 -14 h18" fill="none" stroke="#31506b" stroke-width="1.8" opacity="0.55"/><rect x="6" y="306" width="88" height="88" rx="3" fill="none" stroke="#243040" stroke-width="1.4" opacity="0.75"/><path d="M20 350 h16 l6 -20 l7 34 l6 -14 h18" fill="none" stroke="#31506b" stroke-width="1.8" opacity="0.55"/><rect x="106" y="306" width="88" height="88" rx="3" fill="none" stroke="#243040" stroke-width="1.4" opacity="0.75"/><path d="M120 350 h16 l6 -20 l7 34 l6 -14 h18" fill="none" stroke="#31506b" stroke-width="1.8" opacity="0.55"/><rect x="206" y="306" width="88" height="88" rx="3" fill="none" stroke="#243040" stroke-width="1.4" opacity="0.75"/><path d="M220 350 h16 l6 -20 l7 34 l6 -14 h18" fill="none" stroke="#31506b" stroke-width="1.8" opacity="0.55"/><rect x="306" y="306" width="88" height="88" rx="3" fill="none" stroke="#243040" stroke-width="1.4" opacity="0.75"/><path d="M320 350 h16 l6 -20 l7 34 l6 -14 h18" fill="none" stroke="#31506b" stroke-width="1.8" opacity="0.55"/><rect x="406" y="306" width="88" height="88" rx="3" fill="none" stroke="#243040" stroke-width="1.4" opacity="0.75"/><path d="M420 350 h16 l6 -20 l7 34 l6 -14 h18" fill="none" stroke="#31506b" stroke-width="1.8" opacity="0.55"/><rect x="506" y="306" width="88" height="88" rx="3" fill="none" stroke="#243040" stroke-width="1.4" opacity="0.75"/><path d="M520 350 h16 l6 -20 l7 34 l6 -14 h18" fill="none" stroke="#31506b" stroke-width="1.8" opacity="0.55"/><rect x="606" y="306" width="88" height="88" rx="3" fill="none" stroke="#243040" stroke-width="1.4" opacity="0.75"/><path d="M620 350 h16 l6 -20 l7 34 l6 -14 h18" fill="none" stroke="#31506b" stroke-width="1.8" opacity="0.55"/><rect x="706" y="306" width="88" height="88" rx="3" fill="none" stroke="#243040" stroke-width="1.4" opacity="0.75"/><path d="M720 350 h16 l6 -20 l7 34 l6 -14 h18" fill="none" stroke="#31506b" stroke-width="1.8" opacity="0.55"/><rect x="6" y="406" width="88" height="88" rx="3" fill="none" stroke="#243040" stroke-width="1.4" opacity="0.75"/><path d="M20 450 h16 l6 -20 l7 34 l6 -14 h18" fill="none" stroke="#31506b" stroke-width="1.8" opacity="0.55"/><rect x="106" y="406" width="88" height="88" rx="3" fill="none" stroke="#243040" stroke-width="1.4" opacity="0.75"/><path d="M120 450 h16 l6 -20 l7 34 l6 -14 h18" fill="none" stroke="#31506b" stroke-width="1.8" opacity="0.55"/><rect x="206" y="406" width="88" height="88" rx="3" fill="none" stroke="#243040" stroke-width="1.4" opacity="0.75"/><path d="M220 450 h16 l6 -20 l7 34 l6 -14 h18" fill="none" stroke="#31506b" stroke-width="1.8" opacity="0.55"/><rect x="306" y="406" width="88" height="88" rx="3" fill="none" stroke="#243040" stroke-width="1.4" opacity="0.75"/><path d="M320 450 h16 l6 -20 l7 34 l6 -14 h18" fill="none" stroke="#31506b" stroke-width="1.8" opacity="0.55"/><rect x="406" y="406" width="88" height="88" rx="3" fill="none" stroke="#243040" stroke-width="1.4" opacity="0.75"/><path d="M420 450 h16 l6 -20 l7 34 l6 -14 h18" fill="none" stroke="#31506b" stroke-width="1.8" opacity="0.55"/><rect x="506" y="406" width="88" height="88" rx="3" fill="none" stroke="#243040" stroke-width="1.4" opacity="0.75"/><path d="M520 450 h16 l6 -20 l7 34 l6 -14 h18" fill="none" stroke="#31506b" stroke-width="1.8" opacity="0.55"/><rect x="606" y="406" width="88" height="88" rx="3" fill="none" stroke="#243040" stroke-width="1.4" opacity="0.75"/><path d="M620 450 h16 l6 -20 l7 34 l6 -14 h18" fill="none" stroke="#31506b" stroke-width="1.8" opacity="0.55"/><rect x="706" y="406" width="88" height="88" rx="3" fill="none" stroke="#243040" stroke-width="1.4" opacity="0.75"/><path d="M720 450 h16 l6 -20 l7 34 l6 -14 h18" fill="none" stroke="#31506b" stroke-width="1.8" opacity="0.55"/><rect x="6" y="506" width="88" height="88" rx="3" fill="none" stroke="#243040" stroke-width="1.4" opacity="0.75"/><path d="M20 550 h16 l6 -20 l7 34 l6 -14 h18" fill="none" stroke="#31506b" stroke-width="1.8" opacity="0.55"/><rect x="106" y="506" width="88" height="88" rx="3" fill="none" stroke="#243040" stroke-width="1.4" opacity="0.75"/><path d="M120 550 h16 l6 -20 l7 34 l6 -14 h18" fill="none" stroke="#31506b" stroke-width="1.8" opacity="0.55"/><rect x="206" y="506" width="88" height="88" rx="3" fill="none" stroke="#243040" stroke-width="1.4" opacity="0.75"/><path d="M220 550 h16 l6 -20 l7 34 l6 -14 h18" fill="none" stroke="#31506b" stroke-width="1.8" opacity="0.55"/><rect x="306" y="506" width="88" height="88" rx="3" fill="none" stroke="#243040" stroke-width="1.4" opacity="0.75"/><path d="M320 550 h16 l6 -20 l7 34 l6 -14 h18" fill="none" stroke="#31506b" stroke-width="1.8" opacity="0.55"/><rect x="406" y="506" width="88" height="88" rx="3" fill="none" stroke="#243040" stroke-width="1.4" opacity="0.75"/><path d="M420 550 h16 l6 -20 l7 34 l6 -14 h18" fill="none" stroke="#31506b" stroke-width="1.8" opacity="0.55"/><rect x="506" y="506" width="88" height="88" rx="3" fill="none" stroke="#243040" stroke-width="1.4" opacity="0.75"/><path d="M520 550 h16 l6 -20 l7 34 l6 -14 h18" fill="none" stroke="#31506b" stroke-width="1.8" opacity="0.55"/><rect x="606" y="506" width="88" height="88" rx="3" fill="none" stroke="#243040" stroke-width="1.4" opacity="0.75"/><path d="M620 550 h16 l6 -20 l7 34 l6 -14 h18" fill="none" stroke="#31506b" stroke-width="1.8" opacity="0.55"/><rect x="706" y="506" width="88" height="88" rx="3" fill="none" stroke="#243040" stroke-width="1.4" opacity="0.75"/><path d="M720 550 h16 l6 -20 l7 34 l6 -14 h18" fill="none" stroke="#31506b" stroke-width="1.8" opacity="0.55"/><rect x="6" y="606" width="88" height="88" rx="3" fill="none" stroke="#243040" stroke-width="1.4" opacity="0.75"/><path d="M20 650 h16 l6 -20 l7 34 l6 -14 h18" fill="none" stroke="#31506b" stroke-width="1.8" opacity="0.55"/><rect x="106" y="606" width="88" height="88" rx="3" fill="none" stroke="#243040" stroke-width="1.4" opacity="0.75"/><path d="M120 650 h16 l6 -20 l7 34 l6 -14 h18" fill="none" stroke="#31506b" stroke-width="1.8" opacity="0.55"/><rect x="206" y="606" width="88" height="88" rx="3" fill="none" stroke="#243040" stroke-width="1.4" opacity="0.75"/><path d="M220 650 h16 l6 -20 l7 34 l6 -14 h18" fill="none" stroke="#31506b" stroke-width="1.8" opacity="0.55"/><rect x="306" y="606" width="88" height="88" rx="3" fill="none" stroke="#243040" stroke-width="1.4" opacity="0.75"/><path d="M320 650 h16 l6 -20 l7 34 l6 -14 h18" fill="none" stroke="#31506b" stroke-width="1.8" opacity="0.55"/><rect x="406" y="606" width="88" height="88" rx="3" fill="none" stroke="#243040" stroke-width="1.4" opacity="0.75"/><path d="M420 650 h16 l6 -20 l7 34 l6 -14 h18" fill="none" stroke="#31506b" stroke-width="1.8" opacity="0.55"/><rect x="506" y="606" width="88" height="88" rx="3" fill="none" stroke="#243040" stroke-width="1.4" opacity="0.75"/><path d="M520 650 h16 l6 -20 l7 34 l6 -14 h18" fill="none" stroke="#31506b" stroke-width="1.8" opacity="0.55"/><rect x="606" y="606" width="88" height="88" rx="3" fill="none" stroke="#243040" stroke-width="1.4" opacity="0.75"/><path d="M620 650 h16 l6 -20 l7 34 l6 -14 h18" fill="none" stroke="#31506b" stroke-width="1.8" opacity="0.55"/><rect x="706" y="606" width="88" height="88" rx="3" fill="none" stroke="#243040" stroke-width="1.4" opacity="0.75"/><path d="M720 650 h16 l6 -20 l7 34 l6 -14 h18" fill="none" stroke="#31506b" stroke-width="1.8" opacity="0.55"/><rect x="6" y="706" width="88" height="88" rx="3" fill="none" stroke="#243040" stroke-width="1.4" opacity="0.75"/><path d="M20 750 h16 l6 -20 l7 34 l6 -14 h18" fill="none" stroke="#31506b" stroke-width="1.8" opacity="0.55"/><rect x="106" y="706" width="88" height="88" rx="3" fill="none" stroke="#243040" stroke-width="1.4" opacity="0.75"/><path d="M120 750 h16 l6 -20 l7 34 l6 -14 h18" fill="none" stroke="#31506b" stroke-width="1.8" opacity="0.55"/><rect x="206" y="706" width="88" height="88" rx="3" fill="none" stroke="#243040" stroke-width="1.4" opacity="0.75"/><path d="M220 750 h16 l6 -20 l7 34 l6 -14 h18" fill="none" stroke="#31506b" stroke-width="1.8" opacity="0.55"/><rect x="306" y="706" width="88" height="88" rx="3" fill="none" stroke="#243040" stroke-width="1.4" opacity="0.75"/><path d="M320 750 h16 l6 -20 l7 34 l6 -14 h18" fill="none" stroke="#31506b" stroke-width="1.8" opacity="0.55"/><rect x="406" y="706" width="88" height="88" rx="3" fill="none" stroke="#243040" stroke-width="1.4" opacity="0.75"/><path d="M420 750 h16 l6 -20 l7 34 l6 -14 h18" fill="none" stroke="#31506b" stroke-width="1.8" opacity="0.55"/><rect x="506" y="706" width="88" height="88" rx="3" fill="none" stroke="#243040" stroke-width="1.4" opacity="0.75"/><path d="M520 750 h16 l6 -20 l7 34 l6 -14 h18" fill="none" stroke="#31506b" stroke-width="1.8" opacity="0.55"/><rect x="606" y="706" width="88" height="88" rx="3" fill="none" stroke="#243040" stroke-width="1.4" opacity="0.75"/><path d="M620 750 h16 l6 -20 l7 34 l6 -14 h18" fill="none" stroke="#31506b" stroke-width="1.8" opacity="0.55"/><rect x="706" y="706" width="88" height="88" rx="3" fill="none" stroke="#243040" stroke-width="1.4" opacity="0.75"/><path d="M720 750 h16 l6 -20 l7 34 l6 -14 h18" fill="none" stroke="#31506b" stroke-width="1.8" opacity="0.55"/>
  <rect x="0" y="0" width="800" height="800" fill="none" stroke="#243040" stroke-width="2" opacity="0.6"/>
  <circle cx="400" cy="400" r="250" fill="none" stroke="#31506b" stroke-width="2" opacity="0.45"/>
  <circle cx="400" cy="400" r="160" fill="none" stroke="#31506b" stroke-width="1.6" opacity="0.35"/>

<rect width="800" height="800" fill="url(#vig)"/>
</svg>